<svg viewBox="0 0 28 28" fill="none" xmlns="http://www.w3.org/2000/svg">
    <rect width="28" height="28" rx="4" fill="#7F62F4"/>
    <path d="M23.42 12.922C23.599 12.843 23.7509 12.7133 23.8569 12.5488C23.9629 12.3843 24.0183 12.1924 24.0163 11.9967C24.0143 11.8011 23.9549 11.6103 23.8456 11.4481C23.7362 11.2858 23.5816 11.1593 23.401 11.084L14.83 7.18C14.5694 7.06115 14.2864 6.99964 14 6.99964C13.7136 6.99964 13.4306 7.06115 13.17 7.18L4.6 11.08C4.42197 11.158 4.27052 11.2861 4.16417 11.4488C4.05782 11.6115 4.00118 11.8016 4.00118 11.996C4.00118 12.1904 4.05782 12.3805 4.16417 12.5432C4.27052 12.7059 4.42197 12.834 4.6 12.912L13.17 16.82C13.4306 16.9389 13.7136 17.0004 14 17.0004C14.2864 17.0004 14.5694 16.9389 14.83 16.82L23.42 12.922Z" stroke="white" stroke-width="2" stroke-linecap="round" stroke-linejoin="round"/>
    <path d="M24 12V18" stroke="white" stroke-width="2" stroke-linecap="round" stroke-linejoin="round"/>
    <path d="M8 14.5V18C8 18.7956 8.63214 19.5587 9.75736 20.1213C10.8826 20.6839 12.4087 21 14 21C15.5913 21 17.1174 20.6839 18.2426 20.1213C19.3679 19.5587 20 18.7956 20 18V14.5" stroke="white" stroke-width="2" stroke-linecap="round" stroke-linejoin="round"/>
</svg>
